<mxfile host="Electron" modified="2024-02-12T23:03:39.607Z" agent="Mozilla/5.0 (Windows NT 10.0; Win64; x64) AppleWebKit/537.36 (KHTML, like Gecko) draw.io/23.0.2 Chrome/120.0.6099.109 Electron/28.1.0 Safari/537.36" etag="jyNhSMqm7LoYvlPP-qEq" version="23.0.2" type="device">
  <diagram name="Page-1" id="1gVbsmw_SKiPF9pZMtXt">
    <mxGraphModel dx="1090" dy="860" grid="0" gridSize="10" guides="1" tooltips="1" connect="1" arrows="1" fold="1" page="1" pageScale="1" pageWidth="827" pageHeight="1169" background="#ffffff" math="0" shadow="0">
      <root>
        <mxCell id="0" />
        <mxCell id="1" parent="0" />
        <mxCell id="XbYydp8vsbrZ9Azepmyq-41" style="edgeStyle=orthogonalEdgeStyle;rounded=0;orthogonalLoop=1;jettySize=auto;html=1;exitX=1;exitY=0.5;exitDx=0;exitDy=0;entryX=0;entryY=0.5;entryDx=0;entryDy=0;strokeColor=#000000;" parent="1" source="XbYydp8vsbrZ9Azepmyq-12" target="XbYydp8vsbrZ9Azepmyq-16" edge="1">
          <mxGeometry relative="1" as="geometry" />
        </mxCell>
        <mxCell id="XbYydp8vsbrZ9Azepmyq-42" value="Login &lt;br&gt;Details" style="edgeLabel;html=1;align=center;verticalAlign=middle;resizable=0;points=[];labelBackgroundColor=none;fontColor=#000000;" parent="XbYydp8vsbrZ9Azepmyq-41" vertex="1" connectable="0">
          <mxGeometry x="-0.0476" y="1" relative="1" as="geometry">
            <mxPoint y="-19" as="offset" />
          </mxGeometry>
        </mxCell>
        <mxCell id="XbYydp8vsbrZ9Azepmyq-68" style="edgeStyle=orthogonalEdgeStyle;rounded=0;orthogonalLoop=1;jettySize=auto;html=1;exitX=0.5;exitY=1;exitDx=0;exitDy=0;entryX=0;entryY=0.5;entryDx=0;entryDy=0;strokeColor=#000000;" parent="1" source="XbYydp8vsbrZ9Azepmyq-12" target="XbYydp8vsbrZ9Azepmyq-65" edge="1">
          <mxGeometry relative="1" as="geometry" />
        </mxCell>
        <mxCell id="XbYydp8vsbrZ9Azepmyq-69" value="Login&lt;br&gt;Details" style="edgeLabel;html=1;align=center;verticalAlign=middle;resizable=0;points=[];labelBackgroundColor=none;fontColor=#000000;" parent="XbYydp8vsbrZ9Azepmyq-68" vertex="1" connectable="0">
          <mxGeometry x="0.2123" y="1" relative="1" as="geometry">
            <mxPoint x="9" y="-19" as="offset" />
          </mxGeometry>
        </mxCell>
        <mxCell id="XbYydp8vsbrZ9Azepmyq-12" value="MovieMaestro&lt;br&gt;User" style="rounded=0;whiteSpace=wrap;html=1;labelBackgroundColor=#FFFFFF;fontColor=#000000;fillColor=#FFFFFF;strokeColor=#000000;" parent="1" vertex="1">
          <mxGeometry x="110" y="710" width="120" height="60" as="geometry" />
        </mxCell>
        <mxCell id="XbYydp8vsbrZ9Azepmyq-19" value="" style="group;labelBackgroundColor=#FFFFFF;fillColor=#f5f5f5;strokeColor=#000000;fontColor=#333333;" parent="1" vertex="1" connectable="0">
          <mxGeometry x="560" y="715" width="120" height="50" as="geometry" />
        </mxCell>
        <mxCell id="XbYydp8vsbrZ9Azepmyq-20" value="&amp;nbsp; &amp;nbsp; &amp;nbsp; &amp;nbsp; &amp;nbsp;User Database" style="strokeWidth=2;html=1;shape=mxgraph.flowchart.annotation_1;align=left;pointerEvents=1;fontColor=#000000;strokeColor=#000000;" parent="XbYydp8vsbrZ9Azepmyq-19" vertex="1">
          <mxGeometry width="120" height="50" as="geometry" />
        </mxCell>
        <mxCell id="XbYydp8vsbrZ9Azepmyq-21" value="" style="endArrow=none;html=1;rounded=0;entryX=0.5;entryY=0;entryDx=0;entryDy=0;entryPerimeter=0;exitX=0.5;exitY=1;exitDx=0;exitDy=0;exitPerimeter=0;strokeColor=#000000;" parent="XbYydp8vsbrZ9Azepmyq-19" edge="1">
          <mxGeometry width="50" height="50" relative="1" as="geometry">
            <mxPoint x="27.692307692307693" y="50" as="sourcePoint" />
            <mxPoint x="27.692307692307693" as="targetPoint" />
          </mxGeometry>
        </mxCell>
        <mxCell id="XbYydp8vsbrZ9Azepmyq-43" style="edgeStyle=orthogonalEdgeStyle;rounded=0;orthogonalLoop=1;jettySize=auto;html=1;entryX=-0.008;entryY=0.7;entryDx=0;entryDy=0;entryPerimeter=0;strokeColor=#000000;" parent="1" target="XbYydp8vsbrZ9Azepmyq-20" edge="1">
          <mxGeometry relative="1" as="geometry">
            <mxPoint x="414" y="750" as="sourcePoint" />
            <mxPoint x="519.96" y="749.05" as="targetPoint" />
            <Array as="points" />
          </mxGeometry>
        </mxCell>
        <mxCell id="XbYydp8vsbrZ9Azepmyq-44" value="Verify" style="edgeLabel;html=1;align=center;verticalAlign=middle;resizable=0;points=[];labelBackgroundColor=none;fontColor=#000000;" parent="XbYydp8vsbrZ9Azepmyq-43" vertex="1" connectable="0">
          <mxGeometry x="-0.0068" y="1" relative="1" as="geometry">
            <mxPoint x="14" y="11" as="offset" />
          </mxGeometry>
        </mxCell>
        <mxCell id="XbYydp8vsbrZ9Azepmyq-45" style="edgeStyle=orthogonalEdgeStyle;rounded=0;orthogonalLoop=1;jettySize=auto;html=1;entryX=1;entryY=0.25;entryDx=0;entryDy=0;exitX=0.002;exitY=0.173;exitDx=0;exitDy=0;exitPerimeter=0;strokeColor=#000000;" parent="1" source="XbYydp8vsbrZ9Azepmyq-20" target="XbYydp8vsbrZ9Azepmyq-16" edge="1">
          <mxGeometry relative="1" as="geometry">
            <mxPoint x="560" y="725" as="sourcePoint" />
            <Array as="points">
              <mxPoint x="560" y="725" />
            </Array>
          </mxGeometry>
        </mxCell>
        <mxCell id="XbYydp8vsbrZ9Azepmyq-46" value="Session Data&lt;br&gt;&amp;amp; User info" style="edgeLabel;html=1;align=center;verticalAlign=middle;resizable=0;points=[];labelBackgroundColor=none;fontColor=#000000;" parent="XbYydp8vsbrZ9Azepmyq-45" vertex="1" connectable="0">
          <mxGeometry x="0.0395" y="1" relative="1" as="geometry">
            <mxPoint x="5" y="-16" as="offset" />
          </mxGeometry>
        </mxCell>
        <mxCell id="XbYydp8vsbrZ9Azepmyq-52" style="edgeStyle=orthogonalEdgeStyle;rounded=0;orthogonalLoop=1;jettySize=auto;html=1;exitX=0.75;exitY=0;exitDx=0;exitDy=0;entryX=0.5;entryY=1;entryDx=0;entryDy=0;strokeColor=#000000;" parent="1" source="XbYydp8vsbrZ9Azepmyq-16" target="XbYydp8vsbrZ9Azepmyq-49" edge="1">
          <mxGeometry relative="1" as="geometry" />
        </mxCell>
        <mxCell id="XbYydp8vsbrZ9Azepmyq-54" value="Configuration" style="edgeLabel;html=1;align=center;verticalAlign=middle;resizable=0;points=[];labelBackgroundColor=none;fontColor=#000000;" parent="XbYydp8vsbrZ9Azepmyq-52" vertex="1" connectable="0">
          <mxGeometry x="0.0512" y="2" relative="1" as="geometry">
            <mxPoint x="-11" y="-8" as="offset" />
          </mxGeometry>
        </mxCell>
        <mxCell id="XbYydp8vsbrZ9Azepmyq-53" style="edgeStyle=orthogonalEdgeStyle;rounded=0;orthogonalLoop=1;jettySize=auto;html=1;exitX=0.25;exitY=0;exitDx=0;exitDy=0;entryX=0.5;entryY=1;entryDx=0;entryDy=0;strokeColor=#000000;" parent="1" source="XbYydp8vsbrZ9Azepmyq-16" target="XbYydp8vsbrZ9Azepmyq-27" edge="1">
          <mxGeometry relative="1" as="geometry" />
        </mxCell>
        <mxCell id="XbYydp8vsbrZ9Azepmyq-55" value="Filter Choices" style="edgeLabel;html=1;align=center;verticalAlign=middle;resizable=0;points=[];labelBackgroundColor=none;fontColor=#000000;" parent="XbYydp8vsbrZ9Azepmyq-53" vertex="1" connectable="0">
          <mxGeometry x="0.019" y="2" relative="1" as="geometry">
            <mxPoint x="12" y="-12" as="offset" />
          </mxGeometry>
        </mxCell>
        <mxCell id="XbYydp8vsbrZ9Azepmyq-56" style="edgeStyle=orthogonalEdgeStyle;rounded=0;orthogonalLoop=1;jettySize=auto;html=1;exitX=0.5;exitY=0;exitDx=0;exitDy=0;entryX=0.5;entryY=1;entryDx=0;entryDy=0;strokeColor=#000000;" parent="1" source="XbYydp8vsbrZ9Azepmyq-27" target="XbYydp8vsbrZ9Azepmyq-23" edge="1">
          <mxGeometry relative="1" as="geometry" />
        </mxCell>
        <mxCell id="XbYydp8vsbrZ9Azepmyq-59" value="Filter&lt;br&gt;Settings" style="edgeLabel;html=1;align=center;verticalAlign=middle;resizable=0;points=[];labelBackgroundColor=none;fontColor=#000000;" parent="XbYydp8vsbrZ9Azepmyq-56" vertex="1" connectable="0">
          <mxGeometry x="-0.019" y="-1" relative="1" as="geometry">
            <mxPoint x="24" as="offset" />
          </mxGeometry>
        </mxCell>
        <mxCell id="XbYydp8vsbrZ9Azepmyq-57" style="edgeStyle=orthogonalEdgeStyle;rounded=0;orthogonalLoop=1;jettySize=auto;html=1;exitX=0;exitY=0.5;exitDx=0;exitDy=0;entryX=1;entryY=0.5;entryDx=0;entryDy=0;strokeColor=#000000;" parent="1" edge="1">
          <mxGeometry relative="1" as="geometry">
            <Array as="points">
              <mxPoint x="380" y="619.71" />
              <mxPoint x="380" y="619.71" />
            </Array>
            <mxPoint x="440" y="619.71" as="sourcePoint" />
            <mxPoint x="335" y="619.71" as="targetPoint" />
          </mxGeometry>
        </mxCell>
        <mxCell id="XbYydp8vsbrZ9Azepmyq-58" value="Default Filter&lt;br&gt;Settings" style="edgeLabel;html=1;align=center;verticalAlign=middle;resizable=0;points=[];labelBackgroundColor=none;fontColor=#000000;" parent="XbYydp8vsbrZ9Azepmyq-57" vertex="1" connectable="0">
          <mxGeometry x="0.0945" relative="1" as="geometry">
            <mxPoint x="8" y="-20" as="offset" />
          </mxGeometry>
        </mxCell>
        <mxCell id="XbYydp8vsbrZ9Azepmyq-60" style="edgeStyle=orthogonalEdgeStyle;rounded=0;orthogonalLoop=1;jettySize=auto;html=1;exitX=0.5;exitY=0;exitDx=0;exitDy=0;entryX=0.5;entryY=1;entryDx=0;entryDy=0;entryPerimeter=0;strokeColor=#000000;" parent="1" source="XbYydp8vsbrZ9Azepmyq-23" edge="1">
          <mxGeometry relative="1" as="geometry">
            <mxPoint x="275" y="430" as="targetPoint" />
            <Array as="points">
              <mxPoint x="275" y="460" />
              <mxPoint x="275" y="460" />
            </Array>
          </mxGeometry>
        </mxCell>
        <mxCell id="XbYydp8vsbrZ9Azepmyq-61" value="API&lt;br&gt;Request" style="edgeLabel;html=1;align=center;verticalAlign=middle;resizable=0;points=[];labelBackgroundColor=none;fontColor=#000000;" parent="XbYydp8vsbrZ9Azepmyq-60" vertex="1" connectable="0">
          <mxGeometry x="-0.221" relative="1" as="geometry">
            <mxPoint x="25" as="offset" />
          </mxGeometry>
        </mxCell>
        <mxCell id="XbYydp8vsbrZ9Azepmyq-62" style="edgeStyle=orthogonalEdgeStyle;rounded=0;orthogonalLoop=1;jettySize=auto;html=1;entryX=0;entryY=0.5;entryDx=0;entryDy=0;exitX=1;exitY=0.5;exitDx=0;exitDy=0;strokeColor=#000000;" parent="1" target="XbYydp8vsbrZ9Azepmyq-34" edge="1" source="XbYydp8vsbrZ9Azepmyq-80">
          <mxGeometry relative="1" as="geometry">
            <mxPoint x="340" y="400" as="sourcePoint" />
          </mxGeometry>
        </mxCell>
        <mxCell id="XbYydp8vsbrZ9Azepmyq-63" value="Request&lt;br&gt;Result" style="edgeLabel;html=1;align=center;verticalAlign=middle;resizable=0;points=[];labelBackgroundColor=none;fontColor=#000000;" parent="XbYydp8vsbrZ9Azepmyq-62" vertex="1" connectable="0">
          <mxGeometry x="-0.015" y="1" relative="1" as="geometry">
            <mxPoint y="-16" as="offset" />
          </mxGeometry>
        </mxCell>
        <mxCell id="XbYydp8vsbrZ9Azepmyq-70" style="edgeStyle=orthogonalEdgeStyle;rounded=0;orthogonalLoop=1;jettySize=auto;html=1;exitX=1;exitY=0.5;exitDx=0;exitDy=0;entryX=0.5;entryY=1;entryDx=0;entryDy=0;entryPerimeter=0;strokeColor=#000000;" parent="1" source="XbYydp8vsbrZ9Azepmyq-65" target="XbYydp8vsbrZ9Azepmyq-20" edge="1">
          <mxGeometry relative="1" as="geometry" />
        </mxCell>
        <mxCell id="XbYydp8vsbrZ9Azepmyq-71" value="User&lt;br&gt;Details" style="edgeLabel;html=1;align=center;verticalAlign=middle;resizable=0;points=[];labelBackgroundColor=none;fontColor=#000000;" parent="XbYydp8vsbrZ9Azepmyq-70" vertex="1" connectable="0">
          <mxGeometry x="-0.2765" y="-1" relative="1" as="geometry">
            <mxPoint x="-23" y="-21" as="offset" />
          </mxGeometry>
        </mxCell>
        <mxCell id="XbYydp8vsbrZ9Azepmyq-16" value="Login" style="rounded=1;whiteSpace=wrap;html=1;fillColor=#ffffff;fontColor=#000000;strokeColor=#000000;" parent="1" vertex="1">
          <mxGeometry x="335" y="710" width="120" height="60" as="geometry" />
        </mxCell>
        <mxCell id="XbYydp8vsbrZ9Azepmyq-17" value="" style="endArrow=none;html=1;rounded=0;exitX=0;exitY=0.75;exitDx=0;exitDy=0;entryX=1;entryY=0.75;entryDx=0;entryDy=0;fontColor=#000000;strokeColor=#000000;" parent="1" source="XbYydp8vsbrZ9Azepmyq-16" target="XbYydp8vsbrZ9Azepmyq-16" edge="1">
          <mxGeometry width="50" height="50" relative="1" as="geometry">
            <mxPoint x="635" y="940" as="sourcePoint" />
            <mxPoint x="685" y="890" as="targetPoint" />
          </mxGeometry>
        </mxCell>
        <mxCell id="XbYydp8vsbrZ9Azepmyq-18" value="" style="endArrow=none;html=1;rounded=0;exitX=0;exitY=0.25;exitDx=0;exitDy=0;entryX=1;entryY=0.25;entryDx=0;entryDy=0;fontColor=#000000;strokeColor=#000000;" parent="1" source="XbYydp8vsbrZ9Azepmyq-16" target="XbYydp8vsbrZ9Azepmyq-16" edge="1">
          <mxGeometry width="50" height="50" relative="1" as="geometry">
            <mxPoint x="565" y="860" as="sourcePoint" />
            <mxPoint x="685" y="860" as="targetPoint" />
          </mxGeometry>
        </mxCell>
        <mxCell id="XbYydp8vsbrZ9Azepmyq-23" value="&lt;font color=&quot;#000000&quot;&gt;Search Movie&lt;/font&gt;" style="rounded=1;whiteSpace=wrap;html=1;fillColor=#FFFFFF;strokeColor=#000000;" parent="1" vertex="1">
          <mxGeometry x="215" y="480" width="120" height="60" as="geometry" />
        </mxCell>
        <mxCell id="XbYydp8vsbrZ9Azepmyq-24" value="" style="endArrow=none;html=1;rounded=0;exitX=0;exitY=0.75;exitDx=0;exitDy=0;entryX=1;entryY=0.75;entryDx=0;entryDy=0;strokeColor=#000000;" parent="1" source="XbYydp8vsbrZ9Azepmyq-23" target="XbYydp8vsbrZ9Azepmyq-23" edge="1">
          <mxGeometry width="50" height="50" relative="1" as="geometry">
            <mxPoint x="515" y="710" as="sourcePoint" />
            <mxPoint x="565" y="660" as="targetPoint" />
          </mxGeometry>
        </mxCell>
        <mxCell id="XbYydp8vsbrZ9Azepmyq-25" value="" style="endArrow=none;html=1;rounded=0;exitX=0;exitY=0.25;exitDx=0;exitDy=0;entryX=1;entryY=0.25;entryDx=0;entryDy=0;strokeColor=#000000;" parent="1" source="XbYydp8vsbrZ9Azepmyq-23" target="XbYydp8vsbrZ9Azepmyq-23" edge="1">
          <mxGeometry width="50" height="50" relative="1" as="geometry">
            <mxPoint x="445" y="630" as="sourcePoint" />
            <mxPoint x="565" y="630" as="targetPoint" />
          </mxGeometry>
        </mxCell>
        <mxCell id="XbYydp8vsbrZ9Azepmyq-27" value="&lt;font color=&quot;#000000&quot;&gt;Filters&lt;/font&gt;" style="rounded=1;whiteSpace=wrap;html=1;fillColor=#FFFFFF;strokeColor=#000000;" parent="1" vertex="1">
          <mxGeometry x="215" y="590" width="120" height="60" as="geometry" />
        </mxCell>
        <mxCell id="XbYydp8vsbrZ9Azepmyq-28" value="" style="endArrow=none;html=1;rounded=0;exitX=0;exitY=0.75;exitDx=0;exitDy=0;entryX=1;entryY=0.75;entryDx=0;entryDy=0;strokeColor=#000000;" parent="1" source="XbYydp8vsbrZ9Azepmyq-27" target="XbYydp8vsbrZ9Azepmyq-27" edge="1">
          <mxGeometry width="50" height="50" relative="1" as="geometry">
            <mxPoint x="515" y="820" as="sourcePoint" />
            <mxPoint x="565" y="770" as="targetPoint" />
          </mxGeometry>
        </mxCell>
        <mxCell id="XbYydp8vsbrZ9Azepmyq-29" value="" style="endArrow=none;html=1;rounded=0;exitX=0;exitY=0.25;exitDx=0;exitDy=0;entryX=1;entryY=0.25;entryDx=0;entryDy=0;strokeColor=#000000;" parent="1" source="XbYydp8vsbrZ9Azepmyq-27" target="XbYydp8vsbrZ9Azepmyq-27" edge="1">
          <mxGeometry width="50" height="50" relative="1" as="geometry">
            <mxPoint x="445" y="740" as="sourcePoint" />
            <mxPoint x="565" y="740" as="targetPoint" />
          </mxGeometry>
        </mxCell>
        <mxCell id="XbYydp8vsbrZ9Azepmyq-49" value="&lt;font color=&quot;#000000&quot;&gt;User Settings&lt;/font&gt;" style="rounded=1;whiteSpace=wrap;html=1;fillColor=#FFFFFF;strokeColor=#000000;" parent="1" vertex="1">
          <mxGeometry x="440" y="590" width="120" height="60" as="geometry" />
        </mxCell>
        <mxCell id="XbYydp8vsbrZ9Azepmyq-50" value="" style="endArrow=none;html=1;rounded=0;exitX=0;exitY=0.75;exitDx=0;exitDy=0;entryX=1;entryY=0.75;entryDx=0;entryDy=0;strokeColor=#000000;" parent="1" source="XbYydp8vsbrZ9Azepmyq-49" target="XbYydp8vsbrZ9Azepmyq-49" edge="1">
          <mxGeometry width="50" height="50" relative="1" as="geometry">
            <mxPoint x="740" y="790" as="sourcePoint" />
            <mxPoint x="790" y="740" as="targetPoint" />
          </mxGeometry>
        </mxCell>
        <mxCell id="XbYydp8vsbrZ9Azepmyq-51" value="" style="endArrow=none;html=1;rounded=0;exitX=0;exitY=0.25;exitDx=0;exitDy=0;entryX=1;entryY=0.25;entryDx=0;entryDy=0;strokeColor=#000000;" parent="1" source="XbYydp8vsbrZ9Azepmyq-49" target="XbYydp8vsbrZ9Azepmyq-49" edge="1">
          <mxGeometry width="50" height="50" relative="1" as="geometry">
            <mxPoint x="670" y="710" as="sourcePoint" />
            <mxPoint x="790" y="710" as="targetPoint" />
          </mxGeometry>
        </mxCell>
        <mxCell id="XbYydp8vsbrZ9Azepmyq-65" value="&lt;font color=&quot;#000000&quot;&gt;Register User&lt;/font&gt;" style="rounded=1;whiteSpace=wrap;html=1;fillColor=#FFFFFF;strokeColor=#000000;" parent="1" vertex="1">
          <mxGeometry x="335" y="800" width="120" height="60" as="geometry" />
        </mxCell>
        <mxCell id="XbYydp8vsbrZ9Azepmyq-66" value="" style="endArrow=none;html=1;rounded=0;exitX=0;exitY=0.75;exitDx=0;exitDy=0;entryX=1;entryY=0.75;entryDx=0;entryDy=0;strokeColor=#000000;" parent="1" source="XbYydp8vsbrZ9Azepmyq-65" target="XbYydp8vsbrZ9Azepmyq-65" edge="1">
          <mxGeometry width="50" height="50" relative="1" as="geometry">
            <mxPoint x="635" y="1070" as="sourcePoint" />
            <mxPoint x="685" y="1020" as="targetPoint" />
          </mxGeometry>
        </mxCell>
        <mxCell id="XbYydp8vsbrZ9Azepmyq-67" value="" style="endArrow=none;html=1;rounded=0;exitX=0;exitY=0.25;exitDx=0;exitDy=0;entryX=1;entryY=0.25;entryDx=0;entryDy=0;strokeColor=#000000;" parent="1" source="XbYydp8vsbrZ9Azepmyq-65" target="XbYydp8vsbrZ9Azepmyq-65" edge="1">
          <mxGeometry width="50" height="50" relative="1" as="geometry">
            <mxPoint x="565" y="990" as="sourcePoint" />
            <mxPoint x="685" y="990" as="targetPoint" />
          </mxGeometry>
        </mxCell>
        <mxCell id="XbYydp8vsbrZ9Azepmyq-76" style="edgeStyle=orthogonalEdgeStyle;rounded=0;orthogonalLoop=1;jettySize=auto;html=1;exitX=0.5;exitY=1;exitDx=0;exitDy=0;entryX=0.753;entryY=-0.007;entryDx=0;entryDy=0;entryPerimeter=0;strokeColor=#000000;" parent="1" target="XbYydp8vsbrZ9Azepmyq-20" edge="1">
          <mxGeometry relative="1" as="geometry">
            <mxPoint x="650" y="430" as="sourcePoint" />
          </mxGeometry>
        </mxCell>
        <mxCell id="XbYydp8vsbrZ9Azepmyq-78" value="Movie&lt;br&gt;Identification" style="edgeLabel;html=1;align=center;verticalAlign=middle;resizable=0;points=[];labelBackgroundColor=none;fontColor=#000000;" parent="XbYydp8vsbrZ9Azepmyq-76" vertex="1" connectable="0">
          <mxGeometry x="-0.0772" y="5" relative="1" as="geometry">
            <mxPoint x="-45" y="-42" as="offset" />
          </mxGeometry>
        </mxCell>
        <mxCell id="XbYydp8vsbrZ9Azepmyq-80" value="TMDB&lt;br&gt;API" style="rounded=0;whiteSpace=wrap;html=1;labelBackgroundColor=#FFFFFF;fontColor=#000000;fillColor=#FFFFFF;strokeColor=#000000;" parent="1" vertex="1">
          <mxGeometry x="215" y="370" width="120" height="60" as="geometry" />
        </mxCell>
        <mxCell id="0eOvuCNRM05dww0Yl1tc-2" style="edgeStyle=orthogonalEdgeStyle;rounded=0;orthogonalLoop=1;jettySize=auto;html=1;exitX=1;exitY=0.25;exitDx=0;exitDy=0;entryX=0.5;entryY=0;entryDx=0;entryDy=0;entryPerimeter=0;strokeColor=#000000;" edge="1" parent="1" source="XbYydp8vsbrZ9Azepmyq-49" target="XbYydp8vsbrZ9Azepmyq-20">
          <mxGeometry relative="1" as="geometry" />
        </mxCell>
        <mxCell id="0eOvuCNRM05dww0Yl1tc-3" value="Edited&lt;br&gt;Settings" style="edgeLabel;html=1;align=center;verticalAlign=middle;resizable=0;points=[];labelBackgroundColor=none;fontColor=#000000;" vertex="1" connectable="0" parent="0eOvuCNRM05dww0Yl1tc-2">
          <mxGeometry x="-0.5055" relative="1" as="geometry">
            <mxPoint x="1" y="-15" as="offset" />
          </mxGeometry>
        </mxCell>
        <mxCell id="0eOvuCNRM05dww0Yl1tc-6" value="" style="group" vertex="1" connectable="0" parent="1">
          <mxGeometry x="400" y="370" width="120" height="60" as="geometry" />
        </mxCell>
        <mxCell id="XbYydp8vsbrZ9Azepmyq-34" value="&lt;font color=&quot;#000000&quot;&gt;Movie Details&lt;/font&gt;" style="rounded=1;whiteSpace=wrap;html=1;fillColor=#FFFFFF;strokeColor=#000000;" parent="0eOvuCNRM05dww0Yl1tc-6" vertex="1">
          <mxGeometry width="120" height="60" as="geometry" />
        </mxCell>
        <mxCell id="XbYydp8vsbrZ9Azepmyq-35" value="" style="endArrow=none;html=1;rounded=0;exitX=0;exitY=0.75;exitDx=0;exitDy=0;entryX=1;entryY=0.75;entryDx=0;entryDy=0;elbow=vertical;strokeColor=#000000;" parent="0eOvuCNRM05dww0Yl1tc-6" source="XbYydp8vsbrZ9Azepmyq-34" target="XbYydp8vsbrZ9Azepmyq-34" edge="1">
          <mxGeometry width="50" height="50" relative="1" as="geometry">
            <mxPoint x="101" y="235" as="sourcePoint" />
            <mxPoint x="151" y="185" as="targetPoint" />
          </mxGeometry>
        </mxCell>
        <mxCell id="XbYydp8vsbrZ9Azepmyq-36" value="" style="endArrow=none;html=1;rounded=0;exitX=0;exitY=0.25;exitDx=0;exitDy=0;entryX=1;entryY=0.25;entryDx=0;entryDy=0;fontColor=#000000;strokeColor=#000000;" parent="0eOvuCNRM05dww0Yl1tc-6" source="XbYydp8vsbrZ9Azepmyq-34" target="XbYydp8vsbrZ9Azepmyq-34" edge="1">
          <mxGeometry width="50" height="50" relative="1" as="geometry">
            <mxPoint x="31" y="155" as="sourcePoint" />
            <mxPoint x="151" y="155" as="targetPoint" />
          </mxGeometry>
        </mxCell>
        <mxCell id="0eOvuCNRM05dww0Yl1tc-7" value="" style="group" vertex="1" connectable="0" parent="1">
          <mxGeometry x="590" y="370" width="120" height="60" as="geometry" />
        </mxCell>
        <mxCell id="0eOvuCNRM05dww0Yl1tc-8" value="&lt;font color=&quot;#000000&quot;&gt;Mark Movie&lt;br&gt;as Watched&lt;br&gt;&lt;/font&gt;" style="rounded=1;whiteSpace=wrap;html=1;fillColor=#FFFFFF;strokeColor=#000000;" vertex="1" parent="0eOvuCNRM05dww0Yl1tc-7">
          <mxGeometry width="120" height="60" as="geometry" />
        </mxCell>
        <mxCell id="0eOvuCNRM05dww0Yl1tc-9" value="" style="endArrow=none;html=1;rounded=0;exitX=0;exitY=0.75;exitDx=0;exitDy=0;entryX=1;entryY=0.75;entryDx=0;entryDy=0;elbow=vertical;strokeColor=#000000;" edge="1" parent="0eOvuCNRM05dww0Yl1tc-7" source="0eOvuCNRM05dww0Yl1tc-8" target="0eOvuCNRM05dww0Yl1tc-8">
          <mxGeometry width="50" height="50" relative="1" as="geometry">
            <mxPoint x="101" y="235" as="sourcePoint" />
            <mxPoint x="151" y="185" as="targetPoint" />
          </mxGeometry>
        </mxCell>
        <mxCell id="0eOvuCNRM05dww0Yl1tc-10" value="" style="endArrow=none;html=1;rounded=0;exitX=0;exitY=0.25;exitDx=0;exitDy=0;entryX=1;entryY=0.25;entryDx=0;entryDy=0;fontColor=#000000;strokeColor=#000000;" edge="1" parent="0eOvuCNRM05dww0Yl1tc-7" source="0eOvuCNRM05dww0Yl1tc-8" target="0eOvuCNRM05dww0Yl1tc-8">
          <mxGeometry width="50" height="50" relative="1" as="geometry">
            <mxPoint x="31" y="155" as="sourcePoint" />
            <mxPoint x="151" y="155" as="targetPoint" />
          </mxGeometry>
        </mxCell>
        <mxCell id="0eOvuCNRM05dww0Yl1tc-11" style="edgeStyle=orthogonalEdgeStyle;rounded=0;orthogonalLoop=1;jettySize=auto;html=1;exitX=1;exitY=0.5;exitDx=0;exitDy=0;entryX=0;entryY=0.5;entryDx=0;entryDy=0;strokeColor=#000000;" edge="1" parent="1" source="XbYydp8vsbrZ9Azepmyq-34" target="0eOvuCNRM05dww0Yl1tc-8">
          <mxGeometry relative="1" as="geometry" />
        </mxCell>
        <mxCell id="0eOvuCNRM05dww0Yl1tc-12" value="User&lt;br&gt;Input" style="edgeLabel;html=1;align=center;verticalAlign=middle;resizable=0;points=[];labelBackgroundColor=none;fontColor=#000000;" vertex="1" connectable="0" parent="0eOvuCNRM05dww0Yl1tc-11">
          <mxGeometry x="-0.0286" relative="1" as="geometry">
            <mxPoint y="-20" as="offset" />
          </mxGeometry>
        </mxCell>
        <mxCell id="0eOvuCNRM05dww0Yl1tc-13" style="edgeStyle=orthogonalEdgeStyle;rounded=0;orthogonalLoop=1;jettySize=auto;html=1;exitX=1;exitY=0.75;exitDx=0;exitDy=0;startArrow=classic;startFill=1;endArrow=none;endFill=0;entryX=0.25;entryY=-0.007;entryDx=0;entryDy=0;entryPerimeter=0;strokeColor=#000000;" edge="1" parent="1" source="XbYydp8vsbrZ9Azepmyq-49" target="XbYydp8vsbrZ9Azepmyq-20">
          <mxGeometry relative="1" as="geometry">
            <mxPoint x="590" y="720" as="targetPoint" />
          </mxGeometry>
        </mxCell>
        <mxCell id="0eOvuCNRM05dww0Yl1tc-14" value="Saved&lt;br&gt;Settings" style="edgeLabel;html=1;align=center;verticalAlign=middle;resizable=0;points=[];labelBackgroundColor=none;fontColor=#000000;" vertex="1" connectable="0" parent="0eOvuCNRM05dww0Yl1tc-13">
          <mxGeometry x="-0.0201" y="4" relative="1" as="geometry">
            <mxPoint x="-26" y="11" as="offset" />
          </mxGeometry>
        </mxCell>
        <mxCell id="0eOvuCNRM05dww0Yl1tc-15" value="" style="group" vertex="1" connectable="0" parent="1">
          <mxGeometry x="590" y="280" width="120" height="60" as="geometry" />
        </mxCell>
        <mxCell id="0eOvuCNRM05dww0Yl1tc-16" value="&lt;font color=&quot;#000000&quot;&gt;Like or Dislike&lt;br&gt;Movie&lt;br&gt;&lt;/font&gt;" style="rounded=1;whiteSpace=wrap;html=1;fillColor=#FFFFFF;strokeColor=#000000;" vertex="1" parent="0eOvuCNRM05dww0Yl1tc-15">
          <mxGeometry width="120" height="60" as="geometry" />
        </mxCell>
        <mxCell id="0eOvuCNRM05dww0Yl1tc-17" value="" style="endArrow=none;html=1;rounded=0;exitX=0;exitY=0.75;exitDx=0;exitDy=0;entryX=1;entryY=0.75;entryDx=0;entryDy=0;elbow=vertical;strokeColor=#000000;" edge="1" parent="0eOvuCNRM05dww0Yl1tc-15" source="0eOvuCNRM05dww0Yl1tc-16" target="0eOvuCNRM05dww0Yl1tc-16">
          <mxGeometry width="50" height="50" relative="1" as="geometry">
            <mxPoint x="101" y="235" as="sourcePoint" />
            <mxPoint x="151" y="185" as="targetPoint" />
          </mxGeometry>
        </mxCell>
        <mxCell id="0eOvuCNRM05dww0Yl1tc-18" value="" style="endArrow=none;html=1;rounded=0;exitX=0;exitY=0.25;exitDx=0;exitDy=0;entryX=1;entryY=0.25;entryDx=0;entryDy=0;fontColor=#000000;strokeColor=#000000;" edge="1" parent="0eOvuCNRM05dww0Yl1tc-15" source="0eOvuCNRM05dww0Yl1tc-16" target="0eOvuCNRM05dww0Yl1tc-16">
          <mxGeometry width="50" height="50" relative="1" as="geometry">
            <mxPoint x="31" y="155" as="sourcePoint" />
            <mxPoint x="151" y="155" as="targetPoint" />
          </mxGeometry>
        </mxCell>
        <mxCell id="0eOvuCNRM05dww0Yl1tc-19" style="edgeStyle=orthogonalEdgeStyle;rounded=0;orthogonalLoop=1;jettySize=auto;html=1;exitX=0.5;exitY=0;exitDx=0;exitDy=0;entryX=0;entryY=0.5;entryDx=0;entryDy=0;strokeColor=#000000;" edge="1" parent="1" source="XbYydp8vsbrZ9Azepmyq-34" target="0eOvuCNRM05dww0Yl1tc-16">
          <mxGeometry relative="1" as="geometry" />
        </mxCell>
        <mxCell id="0eOvuCNRM05dww0Yl1tc-20" value="User&lt;br&gt;Input" style="edgeLabel;html=1;align=center;verticalAlign=middle;resizable=0;points=[];labelBackgroundColor=none;fontColor=#000000;" vertex="1" connectable="0" parent="0eOvuCNRM05dww0Yl1tc-19">
          <mxGeometry x="0.1175" y="1" relative="1" as="geometry">
            <mxPoint x="14" y="-19" as="offset" />
          </mxGeometry>
        </mxCell>
        <mxCell id="0eOvuCNRM05dww0Yl1tc-21" style="edgeStyle=orthogonalEdgeStyle;rounded=0;orthogonalLoop=1;jettySize=auto;html=1;exitX=1;exitY=0.5;exitDx=0;exitDy=0;entryX=1;entryY=0.5;entryDx=0;entryDy=0;entryPerimeter=0;strokeColor=#000000;" edge="1" parent="1" source="0eOvuCNRM05dww0Yl1tc-16" target="XbYydp8vsbrZ9Azepmyq-20">
          <mxGeometry relative="1" as="geometry" />
        </mxCell>
        <mxCell id="0eOvuCNRM05dww0Yl1tc-22" value="Movie Identification&lt;br&gt;&amp;amp; User Choice" style="edgeLabel;html=1;align=center;verticalAlign=middle;resizable=0;points=[];labelBackgroundColor=none;fontColor=#000000;" vertex="1" connectable="0" parent="0eOvuCNRM05dww0Yl1tc-21">
          <mxGeometry x="-0.0747" y="2" relative="1" as="geometry">
            <mxPoint x="48" as="offset" />
          </mxGeometry>
        </mxCell>
      </root>
    </mxGraphModel>
  </diagram>
</mxfile>
